<?xml version="1.0" standalone="no"?>
<!DOCTYPE svg PUBLIC "-//W3C//DTD SVG 20010904//EN"
 "http://www.w3.org/TR/2001/REC-SVG-20010904/DTD/svg10.dtd">
<svg version="1.0" xmlns="http://www.w3.org/2000/svg"
 width="601.000000pt" height="431.000000pt" viewBox="0 0 601.000000 431.000000"
 preserveAspectRatio="xMidYMid meet">
<metadata>
Created by potrace 1.16, written by Peter Selinger 2001-2019
</metadata>
<g transform="translate(0.000000,431.000000) scale(0.100000,-0.100000)"
fill="#000000" stroke="none">
<path d="M2642 4276 l-37 -34 -3 -301 -3 -300 -692 -3 c-642 -3 -695 -4 -720
-21 -61 -40 -62 -44 -65 -364 l-3 -293 -307 0 c-338 0 -352 -2 -396 -63 -20
-27 -21 -43 -24 -328 l-3 -299 -107 0 c-125 0 -167 -15 -223 -77 -57 -63 -63
-93 -56 -288 20 -561 211 -1092 507 -1408 242 -259 569 -399 1100 -474 159
-22 774 -26 940 -5 755 94 1333 355 1785 807 286 286 537 680 711 1117 l39 98
55 0 c367 1 682 177 824 460 51 104 55 133 20 165 -43 38 -178 100 -264 121
-59 15 -113 19 -260 19 -102 0 -199 -3 -216 -7 l-30 -7 -13 62 c-31 153 -127
323 -251 445 -68 68 -173 145 -232 173 -33 14 -43 5 -111 -111 -174 -296 -203
-635 -77 -898 31 -66 38 -87 28 -94 -31 -20 -125 -49 -217 -68 -159 -32 -141
-66 -141 266 0 328 -3 343 -74 375 -37 17 -71 19 -353 19 l-313 0 0 625 c0
681 2 659 -56 704 -26 20 -37 21 -375 21 l-349 0 -38 -34z m682 -108 c24 -34
24 -483 -1 -510 -15 -17 -37 -18 -294 -18 -239 0 -280 2 -293 16 -14 13 -16
51 -16 256 0 211 2 244 17 260 15 17 37 18 294 18 276 0 278 0 293 -22z
m-1476 -670 c16 -16 17 -490 2 -519 -10 -18 -24 -19 -293 -19 -207 0 -286 3
-295 12 -17 17 -17 509 0 526 17 17 569 17 586 0z m740 0 c17 -17 17 -509 0
-526 -9 -9 -88 -12 -295 -12 -269 0 -283 1 -293 19 -15 29 -14 503 2 519 17
17 569 17 586 0z m734 -5 c16 -15 18 -36 18 -252 0 -198 -3 -240 -16 -259 -15
-22 -17 -22 -291 -22 -243 0 -279 2 -295 17 -16 15 -18 36 -18 259 0 207 2
245 16 258 13 14 54 16 291 16 243 0 279 -2 295 -17z m1510 -245 c65 -56 143
-155 187 -238 37 -68 81 -218 81 -274 0 -82 3 -84 73 -70 128 27 284 36 394
24 110 -12 239 -47 286 -78 l27 -19 -26 -49 c-66 -126 -173 -227 -309 -295
-122 -60 -215 -81 -390 -86 l-150 -5 -55 -137 c-68 -171 -219 -475 -301 -606
-220 -351 -461 -605 -774 -814 -372 -249 -812 -402 -1345 -468 -204 -25 -718
-25 -905 0 -428 59 -718 165 -929 341 l-61 51 175 6 c201 8 296 24 465 80 128
42 311 132 329 162 15 23 -11 71 -41 75 -11 2 -76 -24 -144 -57 -226 -109
-391 -146 -649 -146 -247 1 -237 -3 -311 108 -199 298 -319 711 -344 1187 -7
134 6 173 65 202 33 17 151 18 2041 18 2212 0 2087 -3 2287 62 93 31 208 95
218 122 3 8 -11 36 -30 64 -108 150 -151 363 -112 564 19 98 39 155 92 266
l45 94 27 -18 c15 -9 53 -39 84 -66z m-3719 -427 c15 -12 17 -43 17 -262 0
-212 -2 -250 -16 -263 -13 -14 -54 -16 -293 -16 -224 0 -281 3 -290 14 -8 9
-11 88 -9 267 l3 253 25 13 c37 19 540 14 563 -6z m730 0 c15 -12 17 -43 17
-262 0 -212 -2 -250 -16 -263 -13 -14 -54 -16 -293 -16 -224 0 -281 3 -290 14
-8 9 -11 88 -9 267 l3 253 25 13 c37 19 540 14 563 -6z m740 0 c15 -12 17 -43
17 -265 0 -183 -3 -255 -12 -264 -9 -9 -87 -12 -289 -12 -240 0 -280 2 -293
16 -14 14 -16 48 -14 267 l3 251 25 13 c37 19 540 14 563 -6z m743 -5 c22 -30
20 -482 -2 -514 -15 -22 -17 -22 -291 -22 -243 0 -279 2 -295 17 -16 15 -18
36 -18 258 0 247 3 264 40 278 8 3 136 5 283 4 253 -2 269 -3 283 -21z m717
13 c12 -7 25 -17 29 -23 4 -6 8 -117 8 -246 0 -197 -3 -239 -16 -258 -15 -22
-17 -22 -291 -22 -243 0 -279 2 -295 17 -16 15 -18 36 -18 258 0 247 3 265 40
278 31 11 521 7 543 -4z"/>
<path d="M2837 4084 c-4 -4 -7 -83 -7 -176 l0 -168 30 0 30 0 -2 173 c-3 164
-4 172 -23 175 -12 2 -24 0 -28 -4z"/>
<path d="M3007 4084 c-4 -4 -7 -83 -7 -176 l0 -168 30 0 30 0 -2 173 c-3 164
-4 172 -23 175 -12 2 -24 0 -28 -4z"/>
<path d="M3177 4084 c-4 -4 -7 -83 -7 -176 l0 -168 30 0 30 0 -2 173 c-3 164
-4 172 -23 175 -12 2 -24 0 -28 -4z"/>
<path d="M1355 3398 c-3 -8 -4 -86 -3 -173 l3 -160 30 0 30 0 0 170 0 170 -28
3 c-16 2 -29 -2 -32 -10z"/>
<path d="M1525 3398 c-3 -8 -4 -86 -3 -173 l3 -160 30 0 30 0 0 170 0 170 -28
3 c-16 2 -29 -2 -32 -10z"/>
<path d="M1695 3398 c-3 -8 -4 -86 -3 -173 l3 -160 30 0 30 0 0 170 0 170 -28
3 c-16 2 -29 -2 -32 -10z"/>
<path d="M2095 3398 c-3 -8 -4 -86 -3 -173 l3 -160 30 0 30 0 0 170 0 170 -28
3 c-16 2 -29 -2 -32 -10z"/>
<path d="M2265 3398 c-3 -8 -4 -86 -3 -173 l3 -160 30 0 30 0 0 170 0 170 -28
3 c-16 2 -29 -2 -32 -10z"/>
<path d="M2435 3398 c-3 -8 -4 -86 -3 -173 l3 -160 30 0 30 0 0 170 0 170 -28
3 c-16 2 -29 -2 -32 -10z"/>
<path d="M2835 3398 c-3 -8 -4 -86 -3 -173 l3 -160 25 0 25 0 0 170 c0 169 0
170 -23 173 -12 2 -24 -3 -27 -10z"/>
<path d="M3005 3398 c-3 -8 -4 -86 -3 -173 l3 -160 25 0 25 0 0 170 c0 169 0
170 -23 173 -12 2 -24 -3 -27 -10z"/>
<path d="M3175 3398 c-3 -8 -4 -86 -3 -173 l3 -160 25 0 25 0 0 170 c0 169 0
170 -23 173 -12 2 -24 -3 -27 -10z"/>
<path d="M1864 1255 c-46 -32 -56 -124 -18 -166 65 -72 194 -23 194 73 0 25
-3 27 -29 22 -38 -8 -75 26 -68 62 4 21 1 24 -27 24 -17 0 -41 -7 -52 -15z"/>
<path d="M625 2718 c-3 -8 -4 -86 -3 -173 l3 -160 27 -3 c37 -4 39 10 36 193
l-3 150 -28 3 c-16 2 -29 -2 -32 -10z"/>
<path d="M795 2718 c-3 -8 -4 -86 -3 -173 l3 -160 27 -3 c37 -4 39 10 36 193
l-3 150 -28 3 c-16 2 -29 -2 -32 -10z"/>
<path d="M965 2718 c-3 -8 -4 -86 -3 -173 l3 -160 27 -3 c37 -4 39 10 36 193
l-3 150 -28 3 c-16 2 -29 -2 -32 -10z"/>
<path d="M1355 2718 c-3 -8 -4 -86 -3 -173 l3 -160 30 0 30 0 0 170 0 170 -28
3 c-16 2 -29 -2 -32 -10z"/>
<path d="M1525 2718 c-3 -8 -4 -86 -3 -173 l3 -160 30 0 30 0 0 170 0 170 -28
3 c-16 2 -29 -2 -32 -10z"/>
<path d="M1695 2718 c-3 -8 -4 -86 -3 -173 l3 -160 30 0 30 0 0 170 0 170 -28
3 c-16 2 -29 -2 -32 -10z"/>
<path d="M2097 2724 c-10 -10 -8 -316 2 -332 4 -8 19 -12 32 -10 l24 3 0 170
0 170 -25 3 c-14 2 -29 0 -33 -4z"/>
<path d="M2267 2724 c-10 -10 -8 -316 2 -332 4 -8 19 -12 32 -10 l24 3 0 170
0 170 -25 3 c-14 2 -29 0 -33 -4z"/>
<path d="M2437 2724 c-10 -10 -8 -316 2 -332 4 -8 19 -12 32 -10 l24 3 0 170
0 170 -25 3 c-14 2 -29 0 -33 -4z"/>
<path d="M2832 2558 l3 -173 25 0 25 0 3 173 2 172 -30 0 -30 0 2 -172z"/>
<path d="M3002 2558 l3 -173 25 0 25 0 3 173 2 172 -30 0 -30 0 2 -172z"/>
<path d="M3172 2558 l3 -173 25 0 25 0 3 173 2 172 -30 0 -30 0 2 -172z"/>
<path d="M3572 2558 l3 -173 25 0 25 0 3 173 2 172 -30 0 -30 0 2 -172z"/>
<path d="M3742 2558 l3 -173 25 0 25 0 3 173 2 172 -30 0 -30 0 2 -172z"/>
<path d="M3912 2558 l3 -173 25 0 25 0 3 173 2 172 -30 0 -30 0 2 -172z"/>
<path d="M3846 279 c-35 -28 -37 -95 -3 -127 33 -31 96 -30 125 1 33 35 30 99
-4 126 -34 27 -84 27 -118 0z"/>
</g>
</svg>
